<mxfile host="app.diagrams.net" modified="2024-02-29T10:01:11.280Z" agent="Mozilla/5.0 (Windows NT 10.0; Win64; x64) AppleWebKit/537.36 (KHTML, like Gecko) Chrome/122.0.0.0 Safari/537.36" etag="gwhXNR_T_U9B-esVT_bS" version="23.1.5" type="github">
  <diagram name="第 1 页" id="dwYOAPRFAbXnTIJdFP2D">
    <mxGraphModel dx="5475" dy="2620" grid="0" gridSize="10" guides="0" tooltips="1" connect="1" arrows="1" fold="1" page="0" pageScale="1" pageWidth="827" pageHeight="1169" math="0" shadow="0">
      <root>
        <mxCell id="0" />
        <mxCell id="1" parent="0" />
        <mxCell id="w_-Rmg408Bc-ehyTXncQ-231" value="监控平台" style="html=1;align=center;verticalAlign=top;rounded=1;absoluteArcSize=1;arcSize=10;dashed=1;whiteSpace=wrap;" vertex="1" parent="1">
          <mxGeometry x="86" y="1490" width="623" height="589" as="geometry" />
        </mxCell>
        <mxCell id="w_-Rmg408Bc-ehyTXncQ-9" style="edgeStyle=orthogonalEdgeStyle;rounded=0;orthogonalLoop=1;jettySize=auto;html=1;exitX=1;exitY=0.5;exitDx=0;exitDy=0;entryX=0;entryY=0.5;entryDx=0;entryDy=0;" edge="1" parent="1" source="w_-Rmg408Bc-ehyTXncQ-1" target="w_-Rmg408Bc-ehyTXncQ-5">
          <mxGeometry relative="1" as="geometry" />
        </mxCell>
        <mxCell id="w_-Rmg408Bc-ehyTXncQ-12" style="edgeStyle=orthogonalEdgeStyle;rounded=0;orthogonalLoop=1;jettySize=auto;html=1;exitX=0.5;exitY=1;exitDx=0;exitDy=0;entryX=0.5;entryY=0;entryDx=0;entryDy=0;" edge="1" parent="1" source="w_-Rmg408Bc-ehyTXncQ-1" target="w_-Rmg408Bc-ehyTXncQ-2">
          <mxGeometry relative="1" as="geometry" />
        </mxCell>
        <mxCell id="w_-Rmg408Bc-ehyTXncQ-1" value="发送流程接口" style="rounded=1;whiteSpace=wrap;html=1;" vertex="1" parent="1">
          <mxGeometry x="30" y="80" width="120" height="60" as="geometry" />
        </mxCell>
        <mxCell id="w_-Rmg408Bc-ehyTXncQ-2" value="正常流程处理逻辑&lt;br&gt;不发待办提醒等后续操作" style="rounded=1;whiteSpace=wrap;html=1;" vertex="1" parent="1">
          <mxGeometry x="30" y="190" width="120" height="60" as="geometry" />
        </mxCell>
        <mxCell id="w_-Rmg408Bc-ehyTXncQ-10" style="edgeStyle=orthogonalEdgeStyle;rounded=0;orthogonalLoop=1;jettySize=auto;html=1;exitX=0.5;exitY=1;exitDx=0;exitDy=0;entryX=0.5;entryY=0;entryDx=0;entryDy=0;" edge="1" parent="1" source="w_-Rmg408Bc-ehyTXncQ-3" target="w_-Rmg408Bc-ehyTXncQ-1">
          <mxGeometry relative="1" as="geometry" />
        </mxCell>
        <mxCell id="w_-Rmg408Bc-ehyTXncQ-3" value="电脑端操作" style="rounded=1;whiteSpace=wrap;html=1;" vertex="1" parent="1">
          <mxGeometry x="30" y="-50" width="120" height="60" as="geometry" />
        </mxCell>
        <mxCell id="w_-Rmg408Bc-ehyTXncQ-4" value="保存原始接收数据logexchangedatado" style="rounded=1;whiteSpace=wrap;html=1;" vertex="1" parent="1">
          <mxGeometry x="483" y="520" width="120" height="60" as="geometry" />
        </mxCell>
        <mxCell id="w_-Rmg408Bc-ehyTXncQ-26" style="edgeStyle=orthogonalEdgeStyle;rounded=0;orthogonalLoop=1;jettySize=auto;html=1;exitX=1;exitY=0.5;exitDx=0;exitDy=0;entryX=0;entryY=0.5;entryDx=0;entryDy=0;" edge="1" parent="1" source="w_-Rmg408Bc-ehyTXncQ-5" target="w_-Rmg408Bc-ehyTXncQ-6">
          <mxGeometry relative="1" as="geometry" />
        </mxCell>
        <mxCell id="w_-Rmg408Bc-ehyTXncQ-41" style="edgeStyle=orthogonalEdgeStyle;rounded=0;orthogonalLoop=1;jettySize=auto;html=1;exitX=0.75;exitY=1;exitDx=0;exitDy=0;entryX=0;entryY=0.25;entryDx=0;entryDy=0;" edge="1" parent="1" source="w_-Rmg408Bc-ehyTXncQ-5" target="w_-Rmg408Bc-ehyTXncQ-37">
          <mxGeometry relative="1" as="geometry" />
        </mxCell>
        <mxCell id="w_-Rmg408Bc-ehyTXncQ-5" value="保存推送数据&lt;br&gt;clienttsdo" style="rounded=1;whiteSpace=wrap;html=1;" vertex="1" parent="1">
          <mxGeometry x="220" y="80" width="120" height="60" as="geometry" />
        </mxCell>
        <mxCell id="w_-Rmg408Bc-ehyTXncQ-33" style="edgeStyle=orthogonalEdgeStyle;rounded=0;orthogonalLoop=1;jettySize=auto;html=1;exitX=1;exitY=0.5;exitDx=0;exitDy=0;entryX=0;entryY=0.5;entryDx=0;entryDy=0;" edge="1" parent="1" source="w_-Rmg408Bc-ehyTXncQ-6" target="w_-Rmg408Bc-ehyTXncQ-7">
          <mxGeometry relative="1" as="geometry" />
        </mxCell>
        <mxCell id="w_-Rmg408Bc-ehyTXncQ-35" style="edgeStyle=orthogonalEdgeStyle;rounded=0;orthogonalLoop=1;jettySize=auto;html=1;exitX=1;exitY=0.5;exitDx=0;exitDy=0;entryX=0.5;entryY=1;entryDx=0;entryDy=0;" edge="1" parent="1" source="w_-Rmg408Bc-ehyTXncQ-6" target="w_-Rmg408Bc-ehyTXncQ-34">
          <mxGeometry relative="1" as="geometry" />
        </mxCell>
        <mxCell id="w_-Rmg408Bc-ehyTXncQ-44" style="edgeStyle=orthogonalEdgeStyle;rounded=0;orthogonalLoop=1;jettySize=auto;html=1;exitX=0.5;exitY=0;exitDx=0;exitDy=0;entryX=0.5;entryY=0;entryDx=0;entryDy=0;" edge="1" parent="1" source="w_-Rmg408Bc-ehyTXncQ-6" target="w_-Rmg408Bc-ehyTXncQ-5">
          <mxGeometry relative="1" as="geometry" />
        </mxCell>
        <mxCell id="w_-Rmg408Bc-ehyTXncQ-6" value="推送服务" style="rounded=1;whiteSpace=wrap;html=1;" vertex="1" parent="1">
          <mxGeometry x="414" y="80" width="120" height="60" as="geometry" />
        </mxCell>
        <mxCell id="w_-Rmg408Bc-ehyTXncQ-7" value="中创交换系统" style="rounded=1;whiteSpace=wrap;html=1;" vertex="1" parent="1">
          <mxGeometry x="630" y="80" width="120" height="60" as="geometry" />
        </mxCell>
        <mxCell id="w_-Rmg408Bc-ehyTXncQ-13" style="edgeStyle=orthogonalEdgeStyle;rounded=0;orthogonalLoop=1;jettySize=auto;html=1;exitX=1;exitY=0.5;exitDx=0;exitDy=0;entryX=0;entryY=0.5;entryDx=0;entryDy=0;" edge="1" parent="1" source="w_-Rmg408Bc-ehyTXncQ-8" target="w_-Rmg408Bc-ehyTXncQ-4">
          <mxGeometry relative="1" as="geometry" />
        </mxCell>
        <mxCell id="w_-Rmg408Bc-ehyTXncQ-15" style="edgeStyle=orthogonalEdgeStyle;rounded=0;orthogonalLoop=1;jettySize=auto;html=1;exitX=0.5;exitY=1;exitDx=0;exitDy=0;entryX=0.5;entryY=0;entryDx=0;entryDy=0;" edge="1" parent="1" source="w_-Rmg408Bc-ehyTXncQ-8" target="w_-Rmg408Bc-ehyTXncQ-14">
          <mxGeometry relative="1" as="geometry" />
        </mxCell>
        <mxCell id="w_-Rmg408Bc-ehyTXncQ-8" value="接收接口" style="rounded=1;whiteSpace=wrap;html=1;" vertex="1" parent="1">
          <mxGeometry x="283" y="520" width="120" height="60" as="geometry" />
        </mxCell>
        <mxCell id="w_-Rmg408Bc-ehyTXncQ-11" value="流程选择发送到移动端" style="text;html=1;align=center;verticalAlign=middle;resizable=0;points=[];autosize=1;strokeColor=none;fillColor=none;" vertex="1" parent="1">
          <mxGeometry x="30" y="30" width="140" height="30" as="geometry" />
        </mxCell>
        <mxCell id="w_-Rmg408Bc-ehyTXncQ-64" style="edgeStyle=orthogonalEdgeStyle;rounded=0;orthogonalLoop=1;jettySize=auto;html=1;exitX=1;exitY=0.5;exitDx=0;exitDy=0;" edge="1" parent="1" source="w_-Rmg408Bc-ehyTXncQ-14" target="w_-Rmg408Bc-ehyTXncQ-60">
          <mxGeometry relative="1" as="geometry" />
        </mxCell>
        <mxCell id="w_-Rmg408Bc-ehyTXncQ-66" style="edgeStyle=orthogonalEdgeStyle;rounded=0;orthogonalLoop=1;jettySize=auto;html=1;exitX=0.5;exitY=1;exitDx=0;exitDy=0;entryX=0.5;entryY=1;entryDx=0;entryDy=0;" edge="1" parent="1" source="w_-Rmg408Bc-ehyTXncQ-14" target="w_-Rmg408Bc-ehyTXncQ-60">
          <mxGeometry relative="1" as="geometry" />
        </mxCell>
        <mxCell id="w_-Rmg408Bc-ehyTXncQ-69" style="edgeStyle=orthogonalEdgeStyle;rounded=0;orthogonalLoop=1;jettySize=auto;html=1;exitX=0.5;exitY=1;exitDx=0;exitDy=0;" edge="1" parent="1" source="w_-Rmg408Bc-ehyTXncQ-14" target="w_-Rmg408Bc-ehyTXncQ-67">
          <mxGeometry relative="1" as="geometry" />
        </mxCell>
        <mxCell id="w_-Rmg408Bc-ehyTXncQ-14" value="解析、数据处理" style="rounded=1;whiteSpace=wrap;html=1;" vertex="1" parent="1">
          <mxGeometry x="283" y="610" width="120" height="60" as="geometry" />
        </mxCell>
        <mxCell id="w_-Rmg408Bc-ehyTXncQ-18" value="&lt;span style=&quot;color: rgb(0, 0, 0); font-family: Helvetica; font-size: 12px; font-style: normal; font-variant-ligatures: normal; font-variant-caps: normal; font-weight: 400; letter-spacing: normal; orphans: 2; text-align: center; text-indent: 0px; text-transform: none; widows: 2; word-spacing: 0px; -webkit-text-stroke-width: 0px; background-color: rgb(251, 251, 251); text-decoration-thickness: initial; text-decoration-style: initial; text-decoration-color: initial; float: none; display: inline !important;&quot;&gt;异常报错&lt;/span&gt;保存处理错误" style="text;whiteSpace=wrap;html=1;" vertex="1" parent="1">
          <mxGeometry x="413" y="620" width="147" height="40" as="geometry" />
        </mxCell>
        <mxCell id="w_-Rmg408Bc-ehyTXncQ-24" style="edgeStyle=orthogonalEdgeStyle;rounded=0;orthogonalLoop=1;jettySize=auto;html=1;exitX=0.5;exitY=1;exitDx=0;exitDy=0;" edge="1" parent="1" source="w_-Rmg408Bc-ehyTXncQ-20" target="w_-Rmg408Bc-ehyTXncQ-23">
          <mxGeometry relative="1" as="geometry" />
        </mxCell>
        <mxCell id="w_-Rmg408Bc-ehyTXncQ-25" style="edgeStyle=orthogonalEdgeStyle;rounded=0;orthogonalLoop=1;jettySize=auto;html=1;exitX=0.5;exitY=1;exitDx=0;exitDy=0;entryX=0.5;entryY=0;entryDx=0;entryDy=0;" edge="1" parent="1" source="w_-Rmg408Bc-ehyTXncQ-20" target="w_-Rmg408Bc-ehyTXncQ-22">
          <mxGeometry relative="1" as="geometry" />
        </mxCell>
        <mxCell id="w_-Rmg408Bc-ehyTXncQ-20" value="&lt;span style=&quot;color: rgb(0, 0, 0); font-family: Helvetica; font-size: 12px; font-style: normal; font-variant-ligatures: normal; font-variant-caps: normal; font-weight: 400; letter-spacing: normal; orphans: 2; text-align: center; text-indent: 0px; text-transform: none; widows: 2; word-spacing: 0px; -webkit-text-stroke-width: 0px; background-color: rgb(251, 251, 251); text-decoration-thickness: initial; text-decoration-style: initial; text-decoration-color: initial; float: none; display: inline !important;&quot;&gt;补充完善流程信息&lt;/span&gt;" style="rounded=1;whiteSpace=wrap;html=1;" vertex="1" parent="1">
          <mxGeometry x="90" y="740" width="120" height="60" as="geometry" />
        </mxCell>
        <mxCell id="w_-Rmg408Bc-ehyTXncQ-22" value="反流转中心处理" style="rounded=1;whiteSpace=wrap;html=1;" vertex="1" parent="1">
          <mxGeometry x="193" y="880" width="120" height="60" as="geometry" />
        </mxCell>
        <mxCell id="w_-Rmg408Bc-ehyTXncQ-23" value="顺序流处理" style="rounded=1;whiteSpace=wrap;html=1;" vertex="1" parent="1">
          <mxGeometry x="3" y="880" width="120" height="60" as="geometry" />
        </mxCell>
        <mxCell id="w_-Rmg408Bc-ehyTXncQ-34" value="保存请求&lt;span style=&quot;background-color: initial;&quot;&gt;日志&lt;/span&gt;" style="rounded=1;whiteSpace=wrap;html=1;" vertex="1" parent="1">
          <mxGeometry x="520" y="-50" width="120" height="60" as="geometry" />
        </mxCell>
        <mxCell id="w_-Rmg408Bc-ehyTXncQ-38" style="edgeStyle=orthogonalEdgeStyle;rounded=0;orthogonalLoop=1;jettySize=auto;html=1;exitX=1;exitY=0.5;exitDx=0;exitDy=0;entryX=0.5;entryY=1;entryDx=0;entryDy=0;" edge="1" parent="1" source="w_-Rmg408Bc-ehyTXncQ-37" target="w_-Rmg408Bc-ehyTXncQ-7">
          <mxGeometry relative="1" as="geometry" />
        </mxCell>
        <mxCell id="w_-Rmg408Bc-ehyTXncQ-40" style="edgeStyle=orthogonalEdgeStyle;rounded=0;orthogonalLoop=1;jettySize=auto;html=1;exitX=0;exitY=0.5;exitDx=0;exitDy=0;entryX=0.5;entryY=1;entryDx=0;entryDy=0;" edge="1" parent="1" source="w_-Rmg408Bc-ehyTXncQ-37" target="w_-Rmg408Bc-ehyTXncQ-5">
          <mxGeometry relative="1" as="geometry" />
        </mxCell>
        <mxCell id="w_-Rmg408Bc-ehyTXncQ-59" style="edgeStyle=orthogonalEdgeStyle;rounded=0;orthogonalLoop=1;jettySize=auto;html=1;exitX=1;exitY=0.5;exitDx=0;exitDy=0;entryX=0.5;entryY=0;entryDx=0;entryDy=0;" edge="1" parent="1" source="w_-Rmg408Bc-ehyTXncQ-37" target="w_-Rmg408Bc-ehyTXncQ-56">
          <mxGeometry relative="1" as="geometry" />
        </mxCell>
        <mxCell id="w_-Rmg408Bc-ehyTXncQ-37" value="抓取状态服务" style="rounded=1;whiteSpace=wrap;html=1;" vertex="1" parent="1">
          <mxGeometry x="420" y="190" width="120" height="60" as="geometry" />
        </mxCell>
        <mxCell id="w_-Rmg408Bc-ehyTXncQ-39" value="询问状态" style="text;html=1;align=center;verticalAlign=middle;resizable=0;points=[];autosize=1;strokeColor=none;fillColor=none;" vertex="1" parent="1">
          <mxGeometry x="605" y="188" width="70" height="30" as="geometry" />
        </mxCell>
        <mxCell id="w_-Rmg408Bc-ehyTXncQ-42" value="获取已推送完的数据" style="text;html=1;align=center;verticalAlign=middle;resizable=0;points=[];autosize=1;strokeColor=none;fillColor=none;" vertex="1" parent="1">
          <mxGeometry x="310" y="168" width="130" height="30" as="geometry" />
        </mxCell>
        <mxCell id="w_-Rmg408Bc-ehyTXncQ-43" value="修改推送状态为已送达" style="text;html=1;align=center;verticalAlign=middle;resizable=0;points=[];autosize=1;strokeColor=none;fillColor=none;" vertex="1" parent="1">
          <mxGeometry x="250" y="218" width="140" height="30" as="geometry" />
        </mxCell>
        <mxCell id="w_-Rmg408Bc-ehyTXncQ-45" value="是否成功、失败重试五次" style="text;html=1;align=center;verticalAlign=middle;resizable=0;points=[];autosize=1;strokeColor=none;fillColor=none;" vertex="1" parent="1">
          <mxGeometry x="290" y="18" width="160" height="30" as="geometry" />
        </mxCell>
        <mxCell id="w_-Rmg408Bc-ehyTXncQ-55" style="edgeStyle=orthogonalEdgeStyle;rounded=0;orthogonalLoop=1;jettySize=auto;html=1;exitX=1;exitY=0.5;exitDx=0;exitDy=0;entryX=0;entryY=0.5;entryDx=0;entryDy=0;" edge="1" parent="1" source="w_-Rmg408Bc-ehyTXncQ-54" target="w_-Rmg408Bc-ehyTXncQ-8">
          <mxGeometry relative="1" as="geometry" />
        </mxCell>
        <mxCell id="w_-Rmg408Bc-ehyTXncQ-54" value="中创交换系统" style="rounded=1;whiteSpace=wrap;html=1;" vertex="1" parent="1">
          <mxGeometry x="98" y="520" width="120" height="60" as="geometry" />
        </mxCell>
        <mxCell id="w_-Rmg408Bc-ehyTXncQ-56" value="保存请求日志" style="rounded=1;whiteSpace=wrap;html=1;" vertex="1" parent="1">
          <mxGeometry x="580" y="270" width="120" height="60" as="geometry" />
        </mxCell>
        <mxCell id="w_-Rmg408Bc-ehyTXncQ-60" value="保存接收数据" style="rounded=1;whiteSpace=wrap;html=1;" vertex="1" parent="1">
          <mxGeometry x="550" y="610" width="120" height="60" as="geometry" />
        </mxCell>
        <mxCell id="w_-Rmg408Bc-ehyTXncQ-65" value="正常处理的数据" style="text;html=1;align=center;verticalAlign=middle;resizable=0;points=[];autosize=1;strokeColor=none;fillColor=none;" vertex="1" parent="1">
          <mxGeometry x="420" y="670" width="110" height="30" as="geometry" />
        </mxCell>
        <mxCell id="w_-Rmg408Bc-ehyTXncQ-71" style="edgeStyle=orthogonalEdgeStyle;rounded=0;orthogonalLoop=1;jettySize=auto;html=1;exitX=0;exitY=0.5;exitDx=0;exitDy=0;entryX=1;entryY=0.5;entryDx=0;entryDy=0;" edge="1" parent="1" source="w_-Rmg408Bc-ehyTXncQ-67" target="w_-Rmg408Bc-ehyTXncQ-20">
          <mxGeometry relative="1" as="geometry" />
        </mxCell>
        <mxCell id="w_-Rmg408Bc-ehyTXncQ-73" style="edgeStyle=orthogonalEdgeStyle;rounded=0;orthogonalLoop=1;jettySize=auto;html=1;exitX=1;exitY=0.5;exitDx=0;exitDy=0;" edge="1" parent="1" source="w_-Rmg408Bc-ehyTXncQ-67" target="w_-Rmg408Bc-ehyTXncQ-72">
          <mxGeometry relative="1" as="geometry" />
        </mxCell>
        <mxCell id="w_-Rmg408Bc-ehyTXncQ-67" value="分功能处理" style="rounded=1;whiteSpace=wrap;html=1;" vertex="1" parent="1">
          <mxGeometry x="283" y="740" width="120" height="60" as="geometry" />
        </mxCell>
        <mxCell id="w_-Rmg408Bc-ehyTXncQ-70" value="同步信息" style="text;html=1;align=center;verticalAlign=middle;resizable=0;points=[];autosize=1;strokeColor=none;fillColor=none;" vertex="1" parent="1">
          <mxGeometry x="220" y="740" width="70" height="30" as="geometry" />
        </mxCell>
        <mxCell id="w_-Rmg408Bc-ehyTXncQ-72" value="退回接口" style="rounded=1;whiteSpace=wrap;html=1;" vertex="1" parent="1">
          <mxGeometry x="460" y="740" width="120" height="60" as="geometry" />
        </mxCell>
        <mxCell id="w_-Rmg408Bc-ehyTXncQ-74" value="退回" style="text;html=1;align=center;verticalAlign=middle;resizable=0;points=[];autosize=1;strokeColor=none;fillColor=none;" vertex="1" parent="1">
          <mxGeometry x="403" y="740" width="50" height="30" as="geometry" />
        </mxCell>
        <mxCell id="w_-Rmg408Bc-ehyTXncQ-76" style="edgeStyle=orthogonalEdgeStyle;rounded=0;orthogonalLoop=1;jettySize=auto;html=1;exitX=1;exitY=0.5;exitDx=0;exitDy=0;entryX=0;entryY=0.5;entryDx=0;entryDy=0;" edge="1" parent="1" source="w_-Rmg408Bc-ehyTXncQ-78" target="w_-Rmg408Bc-ehyTXncQ-85">
          <mxGeometry relative="1" as="geometry" />
        </mxCell>
        <mxCell id="w_-Rmg408Bc-ehyTXncQ-234" style="edgeStyle=orthogonalEdgeStyle;rounded=0;orthogonalLoop=1;jettySize=auto;html=1;exitX=0.5;exitY=1;exitDx=0;exitDy=0;entryX=0.5;entryY=0;entryDx=0;entryDy=0;" edge="1" parent="1" source="w_-Rmg408Bc-ehyTXncQ-78" target="w_-Rmg408Bc-ehyTXncQ-233">
          <mxGeometry relative="1" as="geometry" />
        </mxCell>
        <mxCell id="w_-Rmg408Bc-ehyTXncQ-78" value="发送流程接口&lt;br&gt;（顺序流、&lt;br&gt;反流转中心）" style="rounded=1;whiteSpace=wrap;html=1;" vertex="1" parent="1">
          <mxGeometry x="98" y="1580" width="120" height="60" as="geometry" />
        </mxCell>
        <mxCell id="w_-Rmg408Bc-ehyTXncQ-232" style="edgeStyle=orthogonalEdgeStyle;rounded=0;orthogonalLoop=1;jettySize=auto;html=1;exitX=0.5;exitY=0;exitDx=0;exitDy=0;entryX=0;entryY=0.5;entryDx=0;entryDy=0;" edge="1" parent="1" source="w_-Rmg408Bc-ehyTXncQ-81" target="w_-Rmg408Bc-ehyTXncQ-78">
          <mxGeometry relative="1" as="geometry" />
        </mxCell>
        <mxCell id="w_-Rmg408Bc-ehyTXncQ-81" value="电脑端" style="rounded=1;whiteSpace=wrap;html=1;fillColor=#D4E6FF;" vertex="1" parent="1">
          <mxGeometry x="-67" y="1657" width="120" height="60" as="geometry" />
        </mxCell>
        <mxCell id="w_-Rmg408Bc-ehyTXncQ-83" style="edgeStyle=orthogonalEdgeStyle;rounded=0;orthogonalLoop=1;jettySize=auto;html=1;exitX=1;exitY=0.5;exitDx=0;exitDy=0;entryX=0;entryY=0.5;entryDx=0;entryDy=0;" edge="1" parent="1" source="w_-Rmg408Bc-ehyTXncQ-85" target="w_-Rmg408Bc-ehyTXncQ-89">
          <mxGeometry relative="1" as="geometry" />
        </mxCell>
        <mxCell id="w_-Rmg408Bc-ehyTXncQ-84" style="edgeStyle=orthogonalEdgeStyle;rounded=0;orthogonalLoop=1;jettySize=auto;html=1;exitX=0.75;exitY=1;exitDx=0;exitDy=0;entryX=0;entryY=0.25;entryDx=0;entryDy=0;" edge="1" parent="1" source="w_-Rmg408Bc-ehyTXncQ-85" target="w_-Rmg408Bc-ehyTXncQ-109">
          <mxGeometry relative="1" as="geometry" />
        </mxCell>
        <mxCell id="w_-Rmg408Bc-ehyTXncQ-85" value="保存推送数据日志" style="rounded=1;whiteSpace=wrap;html=1;" vertex="1" parent="1">
          <mxGeometry x="247" y="1580" width="120" height="60" as="geometry" />
        </mxCell>
        <mxCell id="w_-Rmg408Bc-ehyTXncQ-87" style="edgeStyle=orthogonalEdgeStyle;rounded=0;orthogonalLoop=1;jettySize=auto;html=1;exitX=1;exitY=0.5;exitDx=0;exitDy=0;entryX=0.5;entryY=1;entryDx=0;entryDy=0;" edge="1" parent="1" source="w_-Rmg408Bc-ehyTXncQ-89" target="w_-Rmg408Bc-ehyTXncQ-105">
          <mxGeometry relative="1" as="geometry" />
        </mxCell>
        <mxCell id="w_-Rmg408Bc-ehyTXncQ-88" style="edgeStyle=orthogonalEdgeStyle;rounded=0;orthogonalLoop=1;jettySize=auto;html=1;exitX=0.5;exitY=0;exitDx=0;exitDy=0;entryX=0.5;entryY=0;entryDx=0;entryDy=0;" edge="1" parent="1" source="w_-Rmg408Bc-ehyTXncQ-89" target="w_-Rmg408Bc-ehyTXncQ-85">
          <mxGeometry relative="1" as="geometry" />
        </mxCell>
        <mxCell id="w_-Rmg408Bc-ehyTXncQ-146" style="edgeStyle=orthogonalEdgeStyle;rounded=0;orthogonalLoop=1;jettySize=auto;html=1;exitX=1;exitY=0.5;exitDx=0;exitDy=0;entryX=0.5;entryY=0;entryDx=0;entryDy=0;" edge="1" parent="1" source="w_-Rmg408Bc-ehyTXncQ-89" target="w_-Rmg408Bc-ehyTXncQ-90">
          <mxGeometry relative="1" as="geometry" />
        </mxCell>
        <mxCell id="w_-Rmg408Bc-ehyTXncQ-89" value="推送服务" style="rounded=1;whiteSpace=wrap;html=1;" vertex="1" parent="1">
          <mxGeometry x="441" y="1580" width="120" height="60" as="geometry" />
        </mxCell>
        <mxCell id="w_-Rmg408Bc-ehyTXncQ-136" style="edgeStyle=orthogonalEdgeStyle;rounded=0;orthogonalLoop=1;jettySize=auto;html=1;exitX=1;exitY=0.5;exitDx=0;exitDy=0;entryX=0;entryY=0.5;entryDx=0;entryDy=0;" edge="1" parent="1" source="w_-Rmg408Bc-ehyTXncQ-90" target="w_-Rmg408Bc-ehyTXncQ-135">
          <mxGeometry relative="1" as="geometry" />
        </mxCell>
        <mxCell id="w_-Rmg408Bc-ehyTXncQ-236" style="edgeStyle=orthogonalEdgeStyle;rounded=0;orthogonalLoop=1;jettySize=auto;html=1;exitX=0.5;exitY=1;exitDx=0;exitDy=0;entryX=1;entryY=0.5;entryDx=0;entryDy=0;" edge="1" parent="1" source="w_-Rmg408Bc-ehyTXncQ-90" target="w_-Rmg408Bc-ehyTXncQ-93">
          <mxGeometry relative="1" as="geometry" />
        </mxCell>
        <mxCell id="w_-Rmg408Bc-ehyTXncQ-90" value="中创交换系统" style="rounded=1;whiteSpace=wrap;html=1;fillColor=#D4E6FF;" vertex="1" parent="1">
          <mxGeometry x="713" y="1658" width="120" height="60" as="geometry" />
        </mxCell>
        <mxCell id="w_-Rmg408Bc-ehyTXncQ-237" style="edgeStyle=orthogonalEdgeStyle;rounded=0;orthogonalLoop=1;jettySize=auto;html=1;exitX=0;exitY=0.5;exitDx=0;exitDy=0;entryX=1;entryY=0.5;entryDx=0;entryDy=0;" edge="1" parent="1" source="w_-Rmg408Bc-ehyTXncQ-93" target="w_-Rmg408Bc-ehyTXncQ-98">
          <mxGeometry relative="1" as="geometry" />
        </mxCell>
        <mxCell id="w_-Rmg408Bc-ehyTXncQ-93" value="接收接口" style="rounded=1;whiteSpace=wrap;html=1;" vertex="1" parent="1">
          <mxGeometry x="581" y="1792" width="120" height="60" as="geometry" />
        </mxCell>
        <mxCell id="w_-Rmg408Bc-ehyTXncQ-94" value="流程选择发送到移动端" style="text;html=1;align=center;verticalAlign=middle;resizable=0;points=[];autosize=1;strokeColor=none;fillColor=none;" vertex="1" parent="1">
          <mxGeometry x="-51" y="1580" width="140" height="30" as="geometry" />
        </mxCell>
        <mxCell id="w_-Rmg408Bc-ehyTXncQ-97" style="edgeStyle=orthogonalEdgeStyle;rounded=0;orthogonalLoop=1;jettySize=auto;html=1;exitX=0.5;exitY=1;exitDx=0;exitDy=0;" edge="1" parent="1" source="w_-Rmg408Bc-ehyTXncQ-98" target="w_-Rmg408Bc-ehyTXncQ-121">
          <mxGeometry relative="1" as="geometry" />
        </mxCell>
        <mxCell id="w_-Rmg408Bc-ehyTXncQ-140" style="edgeStyle=orthogonalEdgeStyle;rounded=0;orthogonalLoop=1;jettySize=auto;html=1;exitX=0;exitY=0.5;exitDx=0;exitDy=0;entryX=1;entryY=0.5;entryDx=0;entryDy=0;" edge="1" parent="1" source="w_-Rmg408Bc-ehyTXncQ-98" target="w_-Rmg408Bc-ehyTXncQ-139">
          <mxGeometry relative="1" as="geometry" />
        </mxCell>
        <mxCell id="w_-Rmg408Bc-ehyTXncQ-98" value="解析、数据处理" style="rounded=1;whiteSpace=wrap;html=1;" vertex="1" parent="1">
          <mxGeometry x="363" y="1762" width="120" height="60" as="geometry" />
        </mxCell>
        <mxCell id="w_-Rmg408Bc-ehyTXncQ-99" value="&lt;div style=&quot;text-align: center;&quot;&gt;&lt;span style=&quot;background-color: initial;&quot;&gt;异常报错保存处理错误&lt;/span&gt;&lt;/div&gt;" style="text;whiteSpace=wrap;html=1;" vertex="1" parent="1">
          <mxGeometry x="239" y="1762" width="147" height="40" as="geometry" />
        </mxCell>
        <mxCell id="w_-Rmg408Bc-ehyTXncQ-238" style="edgeStyle=orthogonalEdgeStyle;rounded=0;orthogonalLoop=1;jettySize=auto;html=1;exitX=0;exitY=0.5;exitDx=0;exitDy=0;entryX=0.75;entryY=1;entryDx=0;entryDy=0;" edge="1" parent="1">
          <mxGeometry relative="1" as="geometry">
            <mxPoint x="183.00000000000023" y="1901" as="sourcePoint" />
            <mxPoint x="36" y="1716" as="targetPoint" />
          </mxGeometry>
        </mxCell>
        <mxCell id="w_-Rmg408Bc-ehyTXncQ-102" value="&lt;span style=&quot;color: rgb(0, 0, 0); font-family: Helvetica; font-size: 12px; font-style: normal; font-variant-ligatures: normal; font-variant-caps: normal; font-weight: 400; letter-spacing: normal; orphans: 2; text-align: center; text-indent: 0px; text-transform: none; widows: 2; word-spacing: 0px; -webkit-text-stroke-width: 0px; background-color: rgb(251, 251, 251); text-decoration-thickness: initial; text-decoration-style: initial; text-decoration-color: initial; float: none; display: inline !important;&quot;&gt;补充完善流程信息&lt;/span&gt;" style="rounded=1;whiteSpace=wrap;html=1;" vertex="1" parent="1">
          <mxGeometry x="170" y="1872" width="120" height="60" as="geometry" />
        </mxCell>
        <mxCell id="w_-Rmg408Bc-ehyTXncQ-105" value="保存请求中创&lt;span style=&quot;background-color: initial;&quot;&gt;日志&lt;/span&gt;" style="rounded=1;whiteSpace=wrap;html=1;" vertex="1" parent="1">
          <mxGeometry x="547" y="1500" width="120" height="60" as="geometry" />
        </mxCell>
        <mxCell id="w_-Rmg408Bc-ehyTXncQ-107" style="edgeStyle=orthogonalEdgeStyle;rounded=0;orthogonalLoop=1;jettySize=auto;html=1;exitX=0;exitY=0.5;exitDx=0;exitDy=0;entryX=0.5;entryY=1;entryDx=0;entryDy=0;" edge="1" parent="1" source="w_-Rmg408Bc-ehyTXncQ-109" target="w_-Rmg408Bc-ehyTXncQ-85">
          <mxGeometry relative="1" as="geometry" />
        </mxCell>
        <mxCell id="w_-Rmg408Bc-ehyTXncQ-108" style="edgeStyle=orthogonalEdgeStyle;rounded=0;orthogonalLoop=1;jettySize=auto;html=1;exitX=1;exitY=0.5;exitDx=0;exitDy=0;entryX=0.5;entryY=0;entryDx=0;entryDy=0;" edge="1" parent="1" source="w_-Rmg408Bc-ehyTXncQ-109" target="w_-Rmg408Bc-ehyTXncQ-116">
          <mxGeometry relative="1" as="geometry">
            <Array as="points">
              <mxPoint x="581" y="1706" />
              <mxPoint x="567" y="1706" />
              <mxPoint x="567" y="1689" />
              <mxPoint x="639" y="1689" />
            </Array>
          </mxGeometry>
        </mxCell>
        <mxCell id="w_-Rmg408Bc-ehyTXncQ-235" style="edgeStyle=orthogonalEdgeStyle;rounded=0;orthogonalLoop=1;jettySize=auto;html=1;exitX=1;exitY=0.5;exitDx=0;exitDy=0;" edge="1" parent="1" source="w_-Rmg408Bc-ehyTXncQ-109" target="w_-Rmg408Bc-ehyTXncQ-90">
          <mxGeometry relative="1" as="geometry" />
        </mxCell>
        <mxCell id="w_-Rmg408Bc-ehyTXncQ-109" value="抓取状态服务" style="rounded=1;whiteSpace=wrap;html=1;" vertex="1" parent="1">
          <mxGeometry x="461" y="1659" width="120" height="60" as="geometry" />
        </mxCell>
        <mxCell id="w_-Rmg408Bc-ehyTXncQ-110" value="询问状态" style="text;html=1;align=center;verticalAlign=middle;resizable=0;points=[];autosize=1;strokeColor=none;fillColor=none;" vertex="1" parent="1">
          <mxGeometry x="641" y="1630" width="70" height="30" as="geometry" />
        </mxCell>
        <mxCell id="w_-Rmg408Bc-ehyTXncQ-111" value="获取已推送完的数据" style="text;html=1;align=center;verticalAlign=middle;resizable=0;points=[];autosize=1;strokeColor=none;fillColor=none;" vertex="1" parent="1">
          <mxGeometry x="331" y="1648" width="130" height="30" as="geometry" />
        </mxCell>
        <mxCell id="w_-Rmg408Bc-ehyTXncQ-112" value="修改推送状态为已送达" style="text;html=1;align=center;verticalAlign=middle;resizable=0;points=[];autosize=1;strokeColor=none;fillColor=none;" vertex="1" parent="1">
          <mxGeometry x="309" y="1686" width="140" height="30" as="geometry" />
        </mxCell>
        <mxCell id="w_-Rmg408Bc-ehyTXncQ-113" value="是否成功、失败重试五次" style="text;html=1;align=center;verticalAlign=middle;resizable=0;points=[];autosize=1;strokeColor=none;fillColor=none;" vertex="1" parent="1">
          <mxGeometry x="322" y="1530" width="160" height="30" as="geometry" />
        </mxCell>
        <mxCell id="w_-Rmg408Bc-ehyTXncQ-116" value="保存请求中创日志" style="rounded=1;whiteSpace=wrap;html=1;" vertex="1" parent="1">
          <mxGeometry x="579" y="1723" width="120" height="60" as="geometry" />
        </mxCell>
        <mxCell id="w_-Rmg408Bc-ehyTXncQ-118" value="正常处理的数据" style="text;html=1;align=center;verticalAlign=middle;resizable=0;points=[];autosize=1;strokeColor=none;fillColor=none;" vertex="1" parent="1">
          <mxGeometry x="277" y="1822" width="110" height="30" as="geometry" />
        </mxCell>
        <mxCell id="w_-Rmg408Bc-ehyTXncQ-119" style="edgeStyle=orthogonalEdgeStyle;rounded=0;orthogonalLoop=1;jettySize=auto;html=1;exitX=0;exitY=0.5;exitDx=0;exitDy=0;entryX=1;entryY=0.5;entryDx=0;entryDy=0;" edge="1" parent="1" source="w_-Rmg408Bc-ehyTXncQ-121" target="w_-Rmg408Bc-ehyTXncQ-102">
          <mxGeometry relative="1" as="geometry" />
        </mxCell>
        <mxCell id="w_-Rmg408Bc-ehyTXncQ-120" style="edgeStyle=orthogonalEdgeStyle;rounded=0;orthogonalLoop=1;jettySize=auto;html=1;exitX=1;exitY=0.5;exitDx=0;exitDy=0;" edge="1" parent="1" source="w_-Rmg408Bc-ehyTXncQ-121" target="w_-Rmg408Bc-ehyTXncQ-123">
          <mxGeometry relative="1" as="geometry" />
        </mxCell>
        <mxCell id="w_-Rmg408Bc-ehyTXncQ-126" style="edgeStyle=orthogonalEdgeStyle;rounded=0;orthogonalLoop=1;jettySize=auto;html=1;exitX=0.5;exitY=1;exitDx=0;exitDy=0;entryX=0.5;entryY=0;entryDx=0;entryDy=0;" edge="1" parent="1" source="w_-Rmg408Bc-ehyTXncQ-121" target="w_-Rmg408Bc-ehyTXncQ-125">
          <mxGeometry relative="1" as="geometry" />
        </mxCell>
        <mxCell id="w_-Rmg408Bc-ehyTXncQ-131" style="edgeStyle=orthogonalEdgeStyle;rounded=0;orthogonalLoop=1;jettySize=auto;html=1;exitX=0.5;exitY=1;exitDx=0;exitDy=0;entryX=0.5;entryY=0;entryDx=0;entryDy=0;" edge="1" parent="1" source="w_-Rmg408Bc-ehyTXncQ-121" target="w_-Rmg408Bc-ehyTXncQ-130">
          <mxGeometry relative="1" as="geometry" />
        </mxCell>
        <mxCell id="w_-Rmg408Bc-ehyTXncQ-230" style="edgeStyle=orthogonalEdgeStyle;rounded=0;orthogonalLoop=1;jettySize=auto;html=1;exitX=0.5;exitY=0;exitDx=0;exitDy=0;entryX=0.5;entryY=1;entryDx=0;entryDy=0;" edge="1" parent="1" source="w_-Rmg408Bc-ehyTXncQ-121" target="w_-Rmg408Bc-ehyTXncQ-139">
          <mxGeometry relative="1" as="geometry" />
        </mxCell>
        <mxCell id="w_-Rmg408Bc-ehyTXncQ-121" value="分功能处理" style="rounded=1;whiteSpace=wrap;html=1;" vertex="1" parent="1">
          <mxGeometry x="363" y="1872" width="120" height="60" as="geometry" />
        </mxCell>
        <mxCell id="w_-Rmg408Bc-ehyTXncQ-122" value="同步流程" style="text;html=1;align=center;verticalAlign=middle;resizable=0;points=[];autosize=1;strokeColor=none;fillColor=none;" vertex="1" parent="1">
          <mxGeometry x="300" y="1872" width="70" height="30" as="geometry" />
        </mxCell>
        <mxCell id="w_-Rmg408Bc-ehyTXncQ-242" style="edgeStyle=orthogonalEdgeStyle;rounded=0;orthogonalLoop=1;jettySize=auto;html=1;exitX=0.5;exitY=1;exitDx=0;exitDy=0;entryX=0.25;entryY=1;entryDx=0;entryDy=0;" edge="1" parent="1" source="w_-Rmg408Bc-ehyTXncQ-123" target="w_-Rmg408Bc-ehyTXncQ-81">
          <mxGeometry relative="1" as="geometry">
            <Array as="points">
              <mxPoint x="600" y="2067" />
              <mxPoint x="-37" y="2067" />
            </Array>
          </mxGeometry>
        </mxCell>
        <mxCell id="w_-Rmg408Bc-ehyTXncQ-123" value="退回接口" style="rounded=1;whiteSpace=wrap;html=1;" vertex="1" parent="1">
          <mxGeometry x="540" y="1872" width="120" height="60" as="geometry" />
        </mxCell>
        <mxCell id="w_-Rmg408Bc-ehyTXncQ-124" value="退回" style="text;html=1;align=center;verticalAlign=middle;resizable=0;points=[];autosize=1;strokeColor=none;fillColor=none;" vertex="1" parent="1">
          <mxGeometry x="483" y="1872" width="50" height="30" as="geometry" />
        </mxCell>
        <mxCell id="w_-Rmg408Bc-ehyTXncQ-241" style="edgeStyle=orthogonalEdgeStyle;rounded=0;orthogonalLoop=1;jettySize=auto;html=1;exitX=0.5;exitY=1;exitDx=0;exitDy=0;entryX=0.5;entryY=1;entryDx=0;entryDy=0;" edge="1" parent="1" source="w_-Rmg408Bc-ehyTXncQ-125" target="w_-Rmg408Bc-ehyTXncQ-81">
          <mxGeometry relative="1" as="geometry">
            <Array as="points">
              <mxPoint x="533" y="2053" />
              <mxPoint x="-7" y="2053" />
            </Array>
          </mxGeometry>
        </mxCell>
        <mxCell id="w_-Rmg408Bc-ehyTXncQ-125" value="附件处理" style="rounded=1;whiteSpace=wrap;html=1;" vertex="1" parent="1">
          <mxGeometry x="473" y="1982" width="120" height="60" as="geometry" />
        </mxCell>
        <mxCell id="w_-Rmg408Bc-ehyTXncQ-128" value="同步呈批件" style="text;html=1;align=center;verticalAlign=middle;resizable=0;points=[];autosize=1;strokeColor=none;fillColor=none;" vertex="1" parent="1">
          <mxGeometry x="443" y="1932" width="80" height="30" as="geometry" />
        </mxCell>
        <mxCell id="w_-Rmg408Bc-ehyTXncQ-239" style="edgeStyle=orthogonalEdgeStyle;rounded=0;orthogonalLoop=1;jettySize=auto;html=1;exitX=0;exitY=0.5;exitDx=0;exitDy=0;entryX=0.5;entryY=1;entryDx=0;entryDy=0;" edge="1" parent="1">
          <mxGeometry relative="1" as="geometry">
            <mxPoint x="269" y="2011" as="sourcePoint" />
            <mxPoint x="19" y="1716" as="targetPoint" />
          </mxGeometry>
        </mxCell>
        <mxCell id="w_-Rmg408Bc-ehyTXncQ-130" value="流程已读、已执状态" style="rounded=1;whiteSpace=wrap;html=1;" vertex="1" parent="1">
          <mxGeometry x="243" y="1982" width="120" height="60" as="geometry" />
        </mxCell>
        <mxCell id="w_-Rmg408Bc-ehyTXncQ-132" value="同步状态" style="text;html=1;align=center;verticalAlign=middle;resizable=0;points=[];autosize=1;strokeColor=none;fillColor=none;" vertex="1" parent="1">
          <mxGeometry x="330" y="1932" width="70" height="30" as="geometry" />
        </mxCell>
        <mxCell id="w_-Rmg408Bc-ehyTXncQ-137" style="edgeStyle=orthogonalEdgeStyle;rounded=0;orthogonalLoop=1;jettySize=auto;html=1;exitX=0;exitY=0.25;exitDx=0;exitDy=0;entryX=1;entryY=0.25;entryDx=0;entryDy=0;" edge="1" parent="1" source="w_-Rmg408Bc-ehyTXncQ-135" target="w_-Rmg408Bc-ehyTXncQ-90">
          <mxGeometry relative="1" as="geometry" />
        </mxCell>
        <mxCell id="w_-Rmg408Bc-ehyTXncQ-135" value="移动端" style="rounded=1;whiteSpace=wrap;html=1;fillColor=#D4E6FF;" vertex="1" parent="1">
          <mxGeometry x="890" y="1657" width="120" height="60" as="geometry" />
        </mxCell>
        <mxCell id="w_-Rmg408Bc-ehyTXncQ-139" value="保存接收数据日志" style="rounded=1;whiteSpace=wrap;html=1;" vertex="1" parent="1">
          <mxGeometry x="119" y="1762" width="120" height="60" as="geometry" />
        </mxCell>
        <mxCell id="w_-Rmg408Bc-ehyTXncQ-150" style="edgeStyle=orthogonalEdgeStyle;rounded=0;orthogonalLoop=1;jettySize=auto;html=1;exitX=0.5;exitY=1;exitDx=0;exitDy=0;" edge="1" parent="1">
          <mxGeometry relative="1" as="geometry">
            <mxPoint x="158" y="1739.9999999999995" as="sourcePoint" />
            <mxPoint x="158" y="1739.9999999999995" as="targetPoint" />
          </mxGeometry>
        </mxCell>
        <mxCell id="w_-Rmg408Bc-ehyTXncQ-170" style="edgeStyle=orthogonalEdgeStyle;rounded=0;orthogonalLoop=1;jettySize=auto;html=1;exitX=1;exitY=0.5;exitDx=0;exitDy=0;entryX=0;entryY=0.5;entryDx=0;entryDy=0;" edge="1" parent="1" source="w_-Rmg408Bc-ehyTXncQ-172" target="w_-Rmg408Bc-ehyTXncQ-177">
          <mxGeometry relative="1" as="geometry" />
        </mxCell>
        <mxCell id="w_-Rmg408Bc-ehyTXncQ-171" style="edgeStyle=orthogonalEdgeStyle;rounded=0;orthogonalLoop=1;jettySize=auto;html=1;exitX=0.5;exitY=0;exitDx=0;exitDy=0;" edge="1" parent="1" source="w_-Rmg408Bc-ehyTXncQ-172" target="w_-Rmg408Bc-ehyTXncQ-224">
          <mxGeometry relative="1" as="geometry" />
        </mxCell>
        <mxCell id="w_-Rmg408Bc-ehyTXncQ-172" value="发送流程接口&lt;br&gt;（顺序流、&lt;br&gt;反流转中心）" style="rounded=1;whiteSpace=wrap;html=1;" vertex="1" parent="1">
          <mxGeometry x="159.5" y="2878" width="120" height="60" as="geometry" />
        </mxCell>
        <mxCell id="w_-Rmg408Bc-ehyTXncQ-173" style="edgeStyle=orthogonalEdgeStyle;rounded=0;orthogonalLoop=1;jettySize=auto;html=1;exitX=0.5;exitY=0;exitDx=0;exitDy=0;entryX=0.5;entryY=1;entryDx=0;entryDy=0;" edge="1" parent="1" source="w_-Rmg408Bc-ehyTXncQ-174" target="w_-Rmg408Bc-ehyTXncQ-172">
          <mxGeometry relative="1" as="geometry" />
        </mxCell>
        <mxCell id="w_-Rmg408Bc-ehyTXncQ-174" value="电脑端" style="rounded=1;whiteSpace=wrap;html=1;" vertex="1" parent="1">
          <mxGeometry x="159.5" y="2981" width="120" height="60" as="geometry" />
        </mxCell>
        <mxCell id="w_-Rmg408Bc-ehyTXncQ-175" style="edgeStyle=orthogonalEdgeStyle;rounded=0;orthogonalLoop=1;jettySize=auto;html=1;exitX=1;exitY=0.5;exitDx=0;exitDy=0;entryX=0;entryY=0.5;entryDx=0;entryDy=0;" edge="1" parent="1" source="w_-Rmg408Bc-ehyTXncQ-177" target="w_-Rmg408Bc-ehyTXncQ-181">
          <mxGeometry relative="1" as="geometry" />
        </mxCell>
        <mxCell id="w_-Rmg408Bc-ehyTXncQ-176" style="edgeStyle=orthogonalEdgeStyle;rounded=0;orthogonalLoop=1;jettySize=auto;html=1;exitX=0.75;exitY=1;exitDx=0;exitDy=0;entryX=0;entryY=0.25;entryDx=0;entryDy=0;" edge="1" parent="1" source="w_-Rmg408Bc-ehyTXncQ-177" target="w_-Rmg408Bc-ehyTXncQ-198">
          <mxGeometry relative="1" as="geometry" />
        </mxCell>
        <mxCell id="w_-Rmg408Bc-ehyTXncQ-177" value="保存推送数据日志" style="rounded=1;whiteSpace=wrap;html=1;" vertex="1" parent="1">
          <mxGeometry x="308.5" y="2878" width="120" height="60" as="geometry" />
        </mxCell>
        <mxCell id="w_-Rmg408Bc-ehyTXncQ-178" style="edgeStyle=orthogonalEdgeStyle;rounded=0;orthogonalLoop=1;jettySize=auto;html=1;exitX=1;exitY=0.5;exitDx=0;exitDy=0;entryX=0.5;entryY=1;entryDx=0;entryDy=0;" edge="1" parent="1" source="w_-Rmg408Bc-ehyTXncQ-181" target="w_-Rmg408Bc-ehyTXncQ-194">
          <mxGeometry relative="1" as="geometry" />
        </mxCell>
        <mxCell id="w_-Rmg408Bc-ehyTXncQ-179" style="edgeStyle=orthogonalEdgeStyle;rounded=0;orthogonalLoop=1;jettySize=auto;html=1;exitX=0.5;exitY=0;exitDx=0;exitDy=0;entryX=0.5;entryY=0;entryDx=0;entryDy=0;" edge="1" parent="1" source="w_-Rmg408Bc-ehyTXncQ-181" target="w_-Rmg408Bc-ehyTXncQ-177">
          <mxGeometry relative="1" as="geometry" />
        </mxCell>
        <mxCell id="w_-Rmg408Bc-ehyTXncQ-180" style="edgeStyle=orthogonalEdgeStyle;rounded=0;orthogonalLoop=1;jettySize=auto;html=1;exitX=1;exitY=0.5;exitDx=0;exitDy=0;entryX=0.5;entryY=0;entryDx=0;entryDy=0;" edge="1" parent="1" source="w_-Rmg408Bc-ehyTXncQ-181" target="w_-Rmg408Bc-ehyTXncQ-184">
          <mxGeometry relative="1" as="geometry" />
        </mxCell>
        <mxCell id="w_-Rmg408Bc-ehyTXncQ-181" value="推送服务" style="rounded=1;whiteSpace=wrap;html=1;" vertex="1" parent="1">
          <mxGeometry x="502.5" y="2878" width="120" height="60" as="geometry" />
        </mxCell>
        <mxCell id="w_-Rmg408Bc-ehyTXncQ-182" style="edgeStyle=orthogonalEdgeStyle;rounded=0;orthogonalLoop=1;jettySize=auto;html=1;exitX=1;exitY=0.5;exitDx=0;exitDy=0;entryX=0;entryY=0.5;entryDx=0;entryDy=0;" edge="1" parent="1" source="w_-Rmg408Bc-ehyTXncQ-184" target="w_-Rmg408Bc-ehyTXncQ-220">
          <mxGeometry relative="1" as="geometry" />
        </mxCell>
        <mxCell id="w_-Rmg408Bc-ehyTXncQ-183" style="edgeStyle=orthogonalEdgeStyle;rounded=0;orthogonalLoop=1;jettySize=auto;html=1;exitX=0.5;exitY=1;exitDx=0;exitDy=0;entryX=1;entryY=0.5;entryDx=0;entryDy=0;" edge="1" parent="1" source="w_-Rmg408Bc-ehyTXncQ-184" target="w_-Rmg408Bc-ehyTXncQ-186">
          <mxGeometry relative="1" as="geometry">
            <Array as="points">
              <mxPoint x="801.5" y="2996" />
              <mxPoint x="801.5" y="3148" />
            </Array>
          </mxGeometry>
        </mxCell>
        <mxCell id="w_-Rmg408Bc-ehyTXncQ-184" value="中创交换系统" style="rounded=1;whiteSpace=wrap;html=1;" vertex="1" parent="1">
          <mxGeometry x="781.5" y="2936" width="120" height="60" as="geometry" />
        </mxCell>
        <mxCell id="w_-Rmg408Bc-ehyTXncQ-185" style="edgeStyle=orthogonalEdgeStyle;rounded=0;orthogonalLoop=1;jettySize=auto;html=1;exitX=0;exitY=0.5;exitDx=0;exitDy=0;entryX=1;entryY=0.5;entryDx=0;entryDy=0;" edge="1" parent="1" source="w_-Rmg408Bc-ehyTXncQ-186" target="w_-Rmg408Bc-ehyTXncQ-190">
          <mxGeometry relative="1" as="geometry" />
        </mxCell>
        <mxCell id="w_-Rmg408Bc-ehyTXncQ-186" value="接收接口" style="rounded=1;whiteSpace=wrap;html=1;" vertex="1" parent="1">
          <mxGeometry x="641.5" y="3118" width="120" height="60" as="geometry" />
        </mxCell>
        <mxCell id="w_-Rmg408Bc-ehyTXncQ-187" value="流程选择发送到移动端" style="text;html=1;align=center;verticalAlign=middle;resizable=0;points=[];autosize=1;strokeColor=none;fillColor=none;" vertex="1" parent="1">
          <mxGeometry x="211.5" y="2951" width="140" height="30" as="geometry" />
        </mxCell>
        <mxCell id="w_-Rmg408Bc-ehyTXncQ-188" style="edgeStyle=orthogonalEdgeStyle;rounded=0;orthogonalLoop=1;jettySize=auto;html=1;exitX=0.5;exitY=1;exitDx=0;exitDy=0;" edge="1" parent="1" source="w_-Rmg408Bc-ehyTXncQ-190" target="w_-Rmg408Bc-ehyTXncQ-209">
          <mxGeometry relative="1" as="geometry" />
        </mxCell>
        <mxCell id="w_-Rmg408Bc-ehyTXncQ-189" style="edgeStyle=orthogonalEdgeStyle;rounded=0;orthogonalLoop=1;jettySize=auto;html=1;exitX=0;exitY=0.5;exitDx=0;exitDy=0;entryX=1;entryY=0.5;entryDx=0;entryDy=0;" edge="1" parent="1" source="w_-Rmg408Bc-ehyTXncQ-190" target="w_-Rmg408Bc-ehyTXncQ-222">
          <mxGeometry relative="1" as="geometry" />
        </mxCell>
        <mxCell id="w_-Rmg408Bc-ehyTXncQ-190" value="解析、数据处理" style="rounded=1;whiteSpace=wrap;html=1;" vertex="1" parent="1">
          <mxGeometry x="441.5" y="3118" width="120" height="60" as="geometry" />
        </mxCell>
        <mxCell id="w_-Rmg408Bc-ehyTXncQ-191" value="&lt;div style=&quot;text-align: center;&quot;&gt;&lt;span style=&quot;background-color: initial;&quot;&gt;异常报错保存处理错误&lt;/span&gt;&lt;/div&gt;" style="text;whiteSpace=wrap;html=1;" vertex="1" parent="1">
          <mxGeometry x="317.5" y="3118" width="147" height="40" as="geometry" />
        </mxCell>
        <mxCell id="w_-Rmg408Bc-ehyTXncQ-192" style="edgeStyle=orthogonalEdgeStyle;rounded=0;orthogonalLoop=1;jettySize=auto;html=1;exitX=0;exitY=0.5;exitDx=0;exitDy=0;entryX=0.25;entryY=1;entryDx=0;entryDy=0;" edge="1" parent="1" source="w_-Rmg408Bc-ehyTXncQ-193" target="w_-Rmg408Bc-ehyTXncQ-174">
          <mxGeometry relative="1" as="geometry" />
        </mxCell>
        <mxCell id="w_-Rmg408Bc-ehyTXncQ-193" value="&lt;span style=&quot;color: rgb(0, 0, 0); font-family: Helvetica; font-size: 12px; font-style: normal; font-variant-ligatures: normal; font-variant-caps: normal; font-weight: 400; letter-spacing: normal; orphans: 2; text-align: center; text-indent: 0px; text-transform: none; widows: 2; word-spacing: 0px; -webkit-text-stroke-width: 0px; background-color: rgb(251, 251, 251); text-decoration-thickness: initial; text-decoration-style: initial; text-decoration-color: initial; float: none; display: inline !important;&quot;&gt;补充完善流程信息&lt;/span&gt;" style="rounded=1;whiteSpace=wrap;html=1;" vertex="1" parent="1">
          <mxGeometry x="248.5" y="3228" width="120" height="60" as="geometry" />
        </mxCell>
        <mxCell id="w_-Rmg408Bc-ehyTXncQ-194" value="保存请求中创&lt;span style=&quot;background-color: initial;&quot;&gt;日志&lt;/span&gt;" style="rounded=1;whiteSpace=wrap;html=1;" vertex="1" parent="1">
          <mxGeometry x="608.5" y="2798" width="120" height="60" as="geometry" />
        </mxCell>
        <mxCell id="w_-Rmg408Bc-ehyTXncQ-195" style="edgeStyle=orthogonalEdgeStyle;rounded=0;orthogonalLoop=1;jettySize=auto;html=1;exitX=0;exitY=0.5;exitDx=0;exitDy=0;entryX=0.5;entryY=1;entryDx=0;entryDy=0;" edge="1" parent="1" source="w_-Rmg408Bc-ehyTXncQ-198" target="w_-Rmg408Bc-ehyTXncQ-177">
          <mxGeometry relative="1" as="geometry" />
        </mxCell>
        <mxCell id="w_-Rmg408Bc-ehyTXncQ-196" style="edgeStyle=orthogonalEdgeStyle;rounded=0;orthogonalLoop=1;jettySize=auto;html=1;exitX=1;exitY=0.5;exitDx=0;exitDy=0;entryX=0.5;entryY=0;entryDx=0;entryDy=0;" edge="1" parent="1" source="w_-Rmg408Bc-ehyTXncQ-198" target="w_-Rmg408Bc-ehyTXncQ-203">
          <mxGeometry relative="1" as="geometry" />
        </mxCell>
        <mxCell id="w_-Rmg408Bc-ehyTXncQ-197" style="edgeStyle=orthogonalEdgeStyle;rounded=0;orthogonalLoop=1;jettySize=auto;html=1;exitX=1;exitY=0.5;exitDx=0;exitDy=0;entryX=0;entryY=0.5;entryDx=0;entryDy=0;" edge="1" parent="1" source="w_-Rmg408Bc-ehyTXncQ-198" target="w_-Rmg408Bc-ehyTXncQ-184">
          <mxGeometry relative="1" as="geometry" />
        </mxCell>
        <mxCell id="w_-Rmg408Bc-ehyTXncQ-198" value="抓取状态服务" style="rounded=1;whiteSpace=wrap;html=1;" vertex="1" parent="1">
          <mxGeometry x="508.5" y="2988" width="120" height="60" as="geometry" />
        </mxCell>
        <mxCell id="w_-Rmg408Bc-ehyTXncQ-199" value="询问状态" style="text;html=1;align=center;verticalAlign=middle;resizable=0;points=[];autosize=1;strokeColor=none;fillColor=none;" vertex="1" parent="1">
          <mxGeometry x="701.5" y="2938" width="70" height="30" as="geometry" />
        </mxCell>
        <mxCell id="w_-Rmg408Bc-ehyTXncQ-200" value="获取已推送完的数据" style="text;html=1;align=center;verticalAlign=middle;resizable=0;points=[];autosize=1;strokeColor=none;fillColor=none;" vertex="1" parent="1">
          <mxGeometry x="398.5" y="2966" width="130" height="30" as="geometry" />
        </mxCell>
        <mxCell id="w_-Rmg408Bc-ehyTXncQ-201" value="修改推送状态为已送达" style="text;html=1;align=center;verticalAlign=middle;resizable=0;points=[];autosize=1;strokeColor=none;fillColor=none;" vertex="1" parent="1">
          <mxGeometry x="338.5" y="3016" width="140" height="30" as="geometry" />
        </mxCell>
        <mxCell id="w_-Rmg408Bc-ehyTXncQ-202" value="是否成功、失败重试五次" style="text;html=1;align=center;verticalAlign=middle;resizable=0;points=[];autosize=1;strokeColor=none;fillColor=none;" vertex="1" parent="1">
          <mxGeometry x="383.5" y="2828" width="160" height="30" as="geometry" />
        </mxCell>
        <mxCell id="w_-Rmg408Bc-ehyTXncQ-203" value="保存请求中创日志" style="rounded=1;whiteSpace=wrap;html=1;" vertex="1" parent="1">
          <mxGeometry x="641.5" y="3038" width="120" height="60" as="geometry" />
        </mxCell>
        <mxCell id="w_-Rmg408Bc-ehyTXncQ-204" value="正常处理的数据" style="text;html=1;align=center;verticalAlign=middle;resizable=0;points=[];autosize=1;strokeColor=none;fillColor=none;" vertex="1" parent="1">
          <mxGeometry x="355.5" y="3178" width="110" height="30" as="geometry" />
        </mxCell>
        <mxCell id="w_-Rmg408Bc-ehyTXncQ-205" style="edgeStyle=orthogonalEdgeStyle;rounded=0;orthogonalLoop=1;jettySize=auto;html=1;exitX=0;exitY=0.5;exitDx=0;exitDy=0;entryX=1;entryY=0.5;entryDx=0;entryDy=0;" edge="1" parent="1" source="w_-Rmg408Bc-ehyTXncQ-209" target="w_-Rmg408Bc-ehyTXncQ-193">
          <mxGeometry relative="1" as="geometry" />
        </mxCell>
        <mxCell id="w_-Rmg408Bc-ehyTXncQ-206" style="edgeStyle=orthogonalEdgeStyle;rounded=0;orthogonalLoop=1;jettySize=auto;html=1;exitX=1;exitY=0.5;exitDx=0;exitDy=0;" edge="1" parent="1" source="w_-Rmg408Bc-ehyTXncQ-209" target="w_-Rmg408Bc-ehyTXncQ-212">
          <mxGeometry relative="1" as="geometry" />
        </mxCell>
        <mxCell id="w_-Rmg408Bc-ehyTXncQ-207" style="edgeStyle=orthogonalEdgeStyle;rounded=0;orthogonalLoop=1;jettySize=auto;html=1;exitX=0.5;exitY=1;exitDx=0;exitDy=0;entryX=0.5;entryY=0;entryDx=0;entryDy=0;" edge="1" parent="1" source="w_-Rmg408Bc-ehyTXncQ-209" target="w_-Rmg408Bc-ehyTXncQ-215">
          <mxGeometry relative="1" as="geometry" />
        </mxCell>
        <mxCell id="w_-Rmg408Bc-ehyTXncQ-208" style="edgeStyle=orthogonalEdgeStyle;rounded=0;orthogonalLoop=1;jettySize=auto;html=1;exitX=0.5;exitY=1;exitDx=0;exitDy=0;entryX=0.5;entryY=0;entryDx=0;entryDy=0;" edge="1" parent="1" source="w_-Rmg408Bc-ehyTXncQ-209" target="w_-Rmg408Bc-ehyTXncQ-217">
          <mxGeometry relative="1" as="geometry" />
        </mxCell>
        <mxCell id="w_-Rmg408Bc-ehyTXncQ-209" value="分功能处理" style="rounded=1;whiteSpace=wrap;html=1;" vertex="1" parent="1">
          <mxGeometry x="441.5" y="3228" width="120" height="60" as="geometry" />
        </mxCell>
        <mxCell id="w_-Rmg408Bc-ehyTXncQ-210" value="同步流程" style="text;html=1;align=center;verticalAlign=middle;resizable=0;points=[];autosize=1;strokeColor=none;fillColor=none;" vertex="1" parent="1">
          <mxGeometry x="373.5" y="3228" width="70" height="30" as="geometry" />
        </mxCell>
        <mxCell id="w_-Rmg408Bc-ehyTXncQ-211" style="edgeStyle=orthogonalEdgeStyle;rounded=0;orthogonalLoop=1;jettySize=auto;html=1;exitX=0.75;exitY=1;exitDx=0;exitDy=0;entryX=0;entryY=0.5;entryDx=0;entryDy=0;" edge="1" parent="1" source="w_-Rmg408Bc-ehyTXncQ-212" target="w_-Rmg408Bc-ehyTXncQ-174">
          <mxGeometry relative="1" as="geometry">
            <Array as="points">
              <mxPoint x="691.5" y="3288" />
              <mxPoint x="691.5" y="3438" />
              <mxPoint x="121.5" y="3438" />
              <mxPoint x="121.5" y="3011" />
            </Array>
          </mxGeometry>
        </mxCell>
        <mxCell id="w_-Rmg408Bc-ehyTXncQ-212" value="退回接口" style="rounded=1;whiteSpace=wrap;html=1;" vertex="1" parent="1">
          <mxGeometry x="618.5" y="3228" width="120" height="60" as="geometry" />
        </mxCell>
        <mxCell id="w_-Rmg408Bc-ehyTXncQ-213" value="退回" style="text;html=1;align=center;verticalAlign=middle;resizable=0;points=[];autosize=1;strokeColor=none;fillColor=none;" vertex="1" parent="1">
          <mxGeometry x="561.5" y="3228" width="50" height="30" as="geometry" />
        </mxCell>
        <mxCell id="w_-Rmg408Bc-ehyTXncQ-214" style="edgeStyle=orthogonalEdgeStyle;rounded=0;orthogonalLoop=1;jettySize=auto;html=1;exitX=0.5;exitY=1;exitDx=0;exitDy=0;entryX=0;entryY=0.75;entryDx=0;entryDy=0;" edge="1" parent="1" source="w_-Rmg408Bc-ehyTXncQ-215" target="w_-Rmg408Bc-ehyTXncQ-174">
          <mxGeometry relative="1" as="geometry" />
        </mxCell>
        <mxCell id="w_-Rmg408Bc-ehyTXncQ-215" value="附件处理" style="rounded=1;whiteSpace=wrap;html=1;" vertex="1" parent="1">
          <mxGeometry x="551.5" y="3338" width="120" height="60" as="geometry" />
        </mxCell>
        <mxCell id="w_-Rmg408Bc-ehyTXncQ-216" value="同步呈批件" style="text;html=1;align=center;verticalAlign=middle;resizable=0;points=[];autosize=1;strokeColor=none;fillColor=none;" vertex="1" parent="1">
          <mxGeometry x="521.5" y="3288" width="80" height="30" as="geometry" />
        </mxCell>
        <mxCell id="w_-Rmg408Bc-ehyTXncQ-217" value="流程已读、已执状态" style="rounded=1;whiteSpace=wrap;html=1;" vertex="1" parent="1">
          <mxGeometry x="321.5" y="3338" width="120" height="60" as="geometry" />
        </mxCell>
        <mxCell id="w_-Rmg408Bc-ehyTXncQ-218" value="同步状态" style="text;html=1;align=center;verticalAlign=middle;resizable=0;points=[];autosize=1;strokeColor=none;fillColor=none;" vertex="1" parent="1">
          <mxGeometry x="408.5" y="3288" width="70" height="30" as="geometry" />
        </mxCell>
        <mxCell id="w_-Rmg408Bc-ehyTXncQ-219" style="edgeStyle=orthogonalEdgeStyle;rounded=0;orthogonalLoop=1;jettySize=auto;html=1;exitX=0;exitY=0.25;exitDx=0;exitDy=0;entryX=1;entryY=0.25;entryDx=0;entryDy=0;" edge="1" parent="1" source="w_-Rmg408Bc-ehyTXncQ-220" target="w_-Rmg408Bc-ehyTXncQ-184">
          <mxGeometry relative="1" as="geometry" />
        </mxCell>
        <mxCell id="w_-Rmg408Bc-ehyTXncQ-220" value="移动端" style="rounded=1;whiteSpace=wrap;html=1;" vertex="1" parent="1">
          <mxGeometry x="931.5" y="2936" width="120" height="60" as="geometry" />
        </mxCell>
        <mxCell id="w_-Rmg408Bc-ehyTXncQ-221" style="edgeStyle=orthogonalEdgeStyle;rounded=0;orthogonalLoop=1;jettySize=auto;html=1;exitX=0.5;exitY=1;exitDx=0;exitDy=0;entryX=0.5;entryY=0;entryDx=0;entryDy=0;" edge="1" parent="1" source="w_-Rmg408Bc-ehyTXncQ-222" target="w_-Rmg408Bc-ehyTXncQ-209">
          <mxGeometry relative="1" as="geometry" />
        </mxCell>
        <mxCell id="w_-Rmg408Bc-ehyTXncQ-222" value="保存接收数据日志" style="rounded=1;whiteSpace=wrap;html=1;" vertex="1" parent="1">
          <mxGeometry x="197.5" y="3118" width="120" height="60" as="geometry" />
        </mxCell>
        <mxCell id="w_-Rmg408Bc-ehyTXncQ-223" style="edgeStyle=orthogonalEdgeStyle;rounded=0;orthogonalLoop=1;jettySize=auto;html=1;exitX=0.5;exitY=1;exitDx=0;exitDy=0;" edge="1" parent="1">
          <mxGeometry relative="1" as="geometry">
            <mxPoint x="219.5" y="3037.9999999999995" as="sourcePoint" />
            <mxPoint x="219.5" y="3037.9999999999995" as="targetPoint" />
          </mxGeometry>
        </mxCell>
        <mxCell id="w_-Rmg408Bc-ehyTXncQ-224" value="正常流程处理逻辑&lt;br&gt;不发待办提醒等后续操作" style="rounded=1;whiteSpace=wrap;html=1;" vertex="1" parent="1">
          <mxGeometry x="159.5" y="2798" width="120" height="60" as="geometry" />
        </mxCell>
        <mxCell id="w_-Rmg408Bc-ehyTXncQ-225" style="edgeStyle=orthogonalEdgeStyle;rounded=0;orthogonalLoop=1;jettySize=auto;html=1;exitX=0;exitY=0.5;exitDx=0;exitDy=0;entryX=0.114;entryY=0.988;entryDx=0;entryDy=0;entryPerimeter=0;" edge="1" parent="1" source="w_-Rmg408Bc-ehyTXncQ-217" target="w_-Rmg408Bc-ehyTXncQ-174">
          <mxGeometry relative="1" as="geometry" />
        </mxCell>
        <mxCell id="w_-Rmg408Bc-ehyTXncQ-233" value="正常流程处理逻辑&lt;br&gt;不发待办提醒等后续操作" style="rounded=1;whiteSpace=wrap;html=1;" vertex="1" parent="1">
          <mxGeometry x="96" y="1658" width="156" height="60" as="geometry" />
        </mxCell>
      </root>
    </mxGraphModel>
  </diagram>
</mxfile>
